<svg xmlns="http://www.w3.org/2000/svg" viewBox="0 0 175.75 39.68"><defs><style>.cls-1{fill:#0068b3;}.cls-2,.cls-3,.cls-4{fill:#1d1d1b;}.cls-2,.cls-3{stroke:#1d1d1b;}.cls-2{stroke-width:0.06px;}.cls-3{stroke-width:0.11px;}</style></defs><title>Plan de travail 5</title><g id="ARaymond"><path class="cls-1" d="M160.58,17.95a7.09,7.09,0,1,0-7.09-7.09A7.09,7.09,0,0,0,160.58,17.95Zm-4.07-7.13A2,2,0,0,1,156,9.43a2.18,2.18,0,0,1,.25-1,2.07,2.07,0,0,1,.69-.77,2.2,2.2,0,0,1,.71-.31,4.7,4.7,0,0,1,1-.09h2V8.55a3.62,3.62,0,0,1,.3-.44,2.73,2.73,0,0,1,.91-.75A2.47,2.47,0,0,1,163,7.12a2.36,2.36,0,0,1,1.45.48,3.33,3.33,0,0,1,1,1.37l0,.11h-.81l0,0a2.81,2.81,0,0,0-.79-.86,1.65,1.65,0,0,0-.93-.27,1.86,1.86,0,0,0-1.5.79,3,3,0,0,0-.62,1.92,3.16,3.16,0,0,0,.62,2,1.86,1.86,0,0,0,1.51.79,1.76,1.76,0,0,0,1.27-.56,2.73,2.73,0,0,0,.72-1.39h-2v-.74h2.8v.08a4,4,0,0,1-.86,2.43,2.47,2.47,0,0,1-4-.07,3.65,3.65,0,0,1-.25-.37V14h-.83V8h-.95a4.81,4.81,0,0,0-1,.07,1.16,1.16,0,0,0-.47.24,1.33,1.33,0,0,0-.36.48,1.46,1.46,0,0,0-.12.61,1.13,1.13,0,0,0,.39.89,1.52,1.52,0,0,0,1,.35h.81l-.08.12L157,14l0,0h-1l.08-.12,1.64-2.5A1.79,1.79,0,0,1,156.51,10.81Zm16.4-.07h-2.3v0a10,10,0,0,1-20.05,0v0h-2.3v0a12.33,12.33,0,0,0,24.66,0Z"/><path class="cls-2" d="M17.83,3.81l-15,20.67H5.41l5.72-7.89h8.58l0,7.9h2.11V3.81Zm1.91,10.67H12.67l6.2-8.54h.88Z"/><path class="cls-3" d="M26.6,5.85V24.46h-2V3.82h5.54a12.61,12.61,0,0,1,2.94.28,5.94,5.94,0,0,1,4,3.22,6.81,6.81,0,0,1,.72,3.06,6.28,6.28,0,0,1-1.42,4.12,4.93,4.93,0,0,1-3.56,1.88l5,8.06H35.36l-6.12-9.95h2a4.47,4.47,0,0,0,3.18-1.15,3.86,3.86,0,0,0,1.23-2.95,5.07,5.07,0,0,0-.38-2,4.36,4.36,0,0,0-1.11-1.56,3.52,3.52,0,0,0-1.47-.79,13.4,13.4,0,0,0-3.05-.23Z"/><path class="cls-3" d="M52.79,22a6.35,6.35,0,0,1-2.53,2.11,7.83,7.83,0,0,1-3.44.77,7.64,7.64,0,0,1-5.71-2.35,8,8,0,0,1-2.28-5.79,8,8,0,0,1,2.33-5.85A7.88,7.88,0,0,1,47,8.53a7.46,7.46,0,0,1,3.3.73,6.59,6.59,0,0,1,2.49,2.1V8.87h2V24.46h-2Zm0-5.43A6.06,6.06,0,0,0,51,12.23a5.5,5.5,0,0,0-4.08-1.85,5.69,5.69,0,0,0-4.27,1.85,6.38,6.38,0,0,0-1.76,4.58,6,6,0,0,0,1.76,4.4A5.7,5.7,0,0,0,46.88,23,5.49,5.49,0,0,0,51,21.12,6.44,6.44,0,0,0,52.79,16.56Z"/><path class="cls-3" d="M56.13,8.87h2.3l4.82,12.66,5-12.66h2.32L62.2,29.5H60.06l2.08-5.07Z"/><path class="cls-3" d="M84.26,11.3a6.28,6.28,0,0,1,2.36-2,7,7,0,0,1,3.15-.7,5.43,5.43,0,0,1,4.62,1.91q1.45,1.91,1.45,6.13v7.87H93.93V16.18a7.29,7.29,0,0,0-1-4.4,4,4,0,0,0-3.33-1.31,4.87,4.87,0,0,0-2.35.55,4.07,4.07,0,0,0-1.61,1.57A4.86,4.86,0,0,0,85.11,14,17.38,17.38,0,0,0,85,16.87v7.58H83.07V15.73a6,6,0,0,0-1.09-4,4.15,4.15,0,0,0-3.34-1.28,5,5,0,0,0-2.39.55,4,4,0,0,0-1.62,1.57A4.48,4.48,0,0,0,74.11,14,18.3,18.3,0,0,0,74,16.87v7.58H72V8.87h2v1.77a5.79,5.79,0,0,1,2.1-1.56,6.85,6.85,0,0,1,2.74-.52A7,7,0,0,1,82,9.3,5.39,5.39,0,0,1,84.26,11.3Z"/><path class="cls-3" d="M97.61,16.67A8.15,8.15,0,0,1,100,10.81a7.49,7.49,0,0,1,5.57-2.44,8.16,8.16,0,0,1,8.16,8.11,8.34,8.34,0,0,1-2.34,6,7.53,7.53,0,0,1-5.67,2.47A7.69,7.69,0,0,1,100,22.48,8,8,0,0,1,97.61,16.67Zm2.1,0a6.33,6.33,0,0,0,1.71,4.51A5.62,5.62,0,0,0,105.69,23a5.53,5.53,0,0,0,4.21-1.82,6.4,6.4,0,0,0,1.7-4.54,6.26,6.26,0,0,0-1.72-4.54,5.82,5.82,0,0,0-4.37-1.78,5.4,5.4,0,0,0-4.09,1.83A6.37,6.37,0,0,0,99.71,16.65Z"/><path class="cls-3" d="M115.18,8.87h1.94v1.77a5.77,5.77,0,0,1,2.13-1.57,7.7,7.7,0,0,1,5.83.13A5.08,5.08,0,0,1,127.2,11a5.74,5.74,0,0,1,.77,2,17.56,17.56,0,0,1,.23,3.32v8.15h-2V15.73a6.17,6.17,0,0,0-1.06-4,4.2,4.2,0,0,0-3.38-1.25,5,5,0,0,0-2.39.55,4,4,0,0,0-1.62,1.57,4.49,4.49,0,0,0-.52,1.45,18.21,18.21,0,0,0-.15,2.84v7.58h-1.94Z"/><path class="cls-3" d="M143.91,11.33V3.82h2V24.46h-2V22.1a7.23,7.23,0,0,1-2.61,2,7.7,7.7,0,0,1-3.3.73,7.61,7.61,0,0,1-5.68-2.38A8.07,8.07,0,0,1,130,16.65a8,8,0,0,1,2.28-5.77A7.64,7.64,0,0,1,138,8.53a7.72,7.72,0,0,1,3.35.72A6.93,6.93,0,0,1,143.91,11.33Zm.06,5.48a6.42,6.42,0,0,0-1.76-4.55,5.51,5.51,0,0,0-4.15-1.88,5.7,5.7,0,0,0-4.22,1.79,6,6,0,0,0-1.76,4.39,6.41,6.41,0,0,0,1.76,4.59A5.68,5.68,0,0,0,138.11,23a5.49,5.49,0,0,0,4.08-1.86A6.08,6.08,0,0,0,144,16.82Z"/><path class="cls-1" d="M75.84,36.87l-.54-2.54-1,2.59h-.16l-1-2.59-.53,2.54H72l.86-4h.28l1.09,2.89,1-2.89h.28l.93,4Z"/><path class="cls-1" d="M77.1,34.88a1.75,1.75,0,0,1,.18-.78,2.08,2.08,0,0,1,.53-.67,2.37,2.37,0,0,1,.74-.42,2.56,2.56,0,0,1,.87-.14,2.63,2.63,0,0,1,.89.14,2.38,2.38,0,0,1,.75.43,2,2,0,0,1,.52.66,1.81,1.81,0,0,1,.17.79,1.93,1.93,0,0,1-.15.77,1.84,1.84,0,0,1-.45.63,2.41,2.41,0,0,1-.79.5,2.62,2.62,0,0,1-.95.17,2.56,2.56,0,0,1-.95-.17,2.33,2.33,0,0,1-.78-.5,1.89,1.89,0,0,1-.44-.63A1.93,1.93,0,0,1,77.1,34.88Zm.69,0a1.45,1.45,0,0,0,.12.58,1.35,1.35,0,0,0,.34.47,1.7,1.7,0,0,0,.54.33,1.73,1.73,0,0,0,.62.12A1.69,1.69,0,0,0,80.6,36a1.4,1.4,0,0,0,.47-1.08,1.24,1.24,0,0,0-.11-.52,1.49,1.49,0,0,0-.33-.45,1.75,1.75,0,0,0-.55-.36,1.81,1.81,0,0,0-.66-.12,1.78,1.78,0,0,0-.61.11,1.57,1.57,0,0,0-.52.31,1.5,1.5,0,0,0-.37.48A1.29,1.29,0,0,0,77.79,34.88Z"/><path class="cls-1" d="M83.46,36.87H82.8V32.94h1.31a2,2,0,0,1,1.25.33,1.11,1.11,0,0,1,.43.95,1,1,0,0,1-.36.8,1.44,1.44,0,0,1-.93.35l1.29,1.51H85L83.46,35Zm0-1.89h.34a2.11,2.11,0,0,0,1-.19.63.63,0,0,0,.33-.58.61.61,0,0,0-.29-.56,1.78,1.78,0,0,0-.91-.18h-.49Z"/><path class="cls-1" d="M89.22,36.87H86.86V32.94h2.36v.52h-1.7v1.17h1.7v.51h-1.7v1.18h1.7Z"/><path class="cls-1" d="M94.42,36.87h-.66v-3.4h-.85v-.53h2.36v.53h-.85Z"/><path class="cls-1" d="M96.82,36.87h-.66V32.94h.66v1.67h1.86V32.94h.66v3.93h-.66v-1.7H96.82Z"/><path class="cls-1" d="M101.2,35.72l-.51,1.14H100l1.78-3.93h.64l1.78,3.93h-.72l-.5-1.14Zm1.53-.55-.64-1.49-.65,1.49Z"/><path class="cls-1" d="M105.54,36.87h-.66V32.94h.68l2.24,3,0-3h.65v3.93h-.63l-2.29-3.06Z"/><path class="cls-1" d="M112.43,36.87V32.94h2.24v.52h-1.59v1.17h1.59v.51h-1.59v1.72Z"/><path class="cls-1" d="M116.59,35.72l-.51,1.14h-.7l1.78-3.93h.64l1.78,3.93h-.72l-.5-1.14Zm1.53-.55-.64-1.49-.65,1.49Z"/><path class="cls-1" d="M120.07,35.74h.59a.69.69,0,0,0,.21.49.71.71,0,0,0,.5.18.79.79,0,0,0,.54-.18.62.62,0,0,0,.21-.49.55.55,0,0,0-.15-.41,1.53,1.53,0,0,0-.63-.27l-.08,0a1.49,1.49,0,0,1-.83-.43,1,1,0,0,1-.17-.28.87.87,0,0,1-.06-.32,1,1,0,0,1,.35-.82,1.31,1.31,0,0,1,.91-.31,1.23,1.23,0,0,1,.84.28,1.07,1.07,0,0,1,.35.76H122a.53.53,0,0,0-.18-.38.69.69,0,0,0-.86,0,.54.54,0,0,0-.17.41.45.45,0,0,0,0,.17.45.45,0,0,0,.1.15,1.23,1.23,0,0,0,.58.24l.31.08a1.44,1.44,0,0,1,.68.42,1,1,0,0,1,.23.67,1.19,1.19,0,0,1-.37.92,1.4,1.4,0,0,1-1,.35,1.35,1.35,0,0,1-.95-.33A1.16,1.16,0,0,1,120.07,35.74Z"/><path class="cls-1" d="M125,36.87h-.66v-3.4h-.85v-.53h2.36v.53H125Z"/><path class="cls-1" d="M129.13,36.87h-2.36V32.94h2.36v.52h-1.7v1.17h1.7v.51h-1.7v1.18h1.7Z"/><path class="cls-1" d="M131.08,36.87h-.66V32.94h.68l2.24,3,0-3h.65v3.93h-.63L131,33.81Z"/><path class="cls-1" d="M135.88,36.87h-.66V32.94h.66Z"/><path class="cls-1" d="M137.82,36.87h-.66V32.94h.68l2.24,3,0-3h.65v3.93h-.63l-2.29-3.06Z"/><path class="cls-1" d="M143.4,34.88H146a2.14,2.14,0,0,1-.63,1.49,2,2,0,0,1-1.49.57,2.16,2.16,0,0,1-.86-.17,2.12,2.12,0,0,1-.71-.5,1.89,1.89,0,0,1-.4-.63,2.09,2.09,0,0,1-.14-.76,1.89,1.89,0,0,1,.16-.78,2.06,2.06,0,0,1,.48-.67,2,2,0,0,1,.67-.43,2.34,2.34,0,0,1,.83-.14,2.13,2.13,0,0,1,1.1.28,1.78,1.78,0,0,1,.72.79H145a1.32,1.32,0,0,0-.49-.38,1.56,1.56,0,0,0-.64-.13,1.5,1.5,0,0,0-.56.11,1.42,1.42,0,0,0-.47.31,1.5,1.5,0,0,0-.33.48,1.41,1.41,0,0,0-.12.56,1.56,1.56,0,0,0,.11.58,1.36,1.36,0,0,0,.31.47,1.53,1.53,0,0,0,.49.33,1.46,1.46,0,0,0,.57.12,1.48,1.48,0,0,0,.84-.24,1.77,1.77,0,0,0,.6-.71H143.4Z"/><path class="cls-1" d="M75.84,36.87l-.54-2.54-1,2.59h-.16l-1-2.59-.53,2.54H72l.86-4h.28l1.09,2.89,1-2.89h.28l.93,4Z"/><path class="cls-1" d="M77.1,34.88a1.75,1.75,0,0,1,.18-.78,2.08,2.08,0,0,1,.53-.67,2.37,2.37,0,0,1,.74-.42,2.56,2.56,0,0,1,.87-.14,2.63,2.63,0,0,1,.89.14,2.38,2.38,0,0,1,.75.43,2,2,0,0,1,.52.66,1.81,1.81,0,0,1,.17.79,1.93,1.93,0,0,1-.15.77,1.84,1.84,0,0,1-.45.63,2.41,2.41,0,0,1-.79.5,2.62,2.62,0,0,1-.95.17,2.56,2.56,0,0,1-.95-.17,2.33,2.33,0,0,1-.78-.5,1.89,1.89,0,0,1-.44-.63A1.93,1.93,0,0,1,77.1,34.88Zm.69,0a1.45,1.45,0,0,0,.12.58,1.35,1.35,0,0,0,.34.47,1.7,1.7,0,0,0,.54.33,1.73,1.73,0,0,0,.62.12A1.69,1.69,0,0,0,80.6,36a1.4,1.4,0,0,0,.47-1.08,1.24,1.24,0,0,0-.11-.52,1.49,1.49,0,0,0-.33-.45,1.75,1.75,0,0,0-.55-.36,1.81,1.81,0,0,0-.66-.12,1.78,1.78,0,0,0-.61.11,1.57,1.57,0,0,0-.52.31,1.5,1.5,0,0,0-.37.48A1.29,1.29,0,0,0,77.79,34.88Z"/><path class="cls-1" d="M83.46,36.87H82.8V32.94h1.31a2,2,0,0,1,1.25.33,1.11,1.11,0,0,1,.43.95,1,1,0,0,1-.36.8,1.44,1.44,0,0,1-.93.35l1.29,1.51H85L83.46,35Zm0-1.89h.34a2.11,2.11,0,0,0,1-.19.63.63,0,0,0,.33-.58.61.61,0,0,0-.29-.56,1.78,1.78,0,0,0-.91-.18h-.49Z"/><path class="cls-1" d="M89.22,36.87H86.86V32.94h2.36v.52h-1.7v1.17h1.7v.51h-1.7v1.18h1.7Z"/><path class="cls-1" d="M94.42,36.87h-.66v-3.4h-.85v-.53h2.36v.53h-.85Z"/><path class="cls-1" d="M96.82,36.87h-.66V32.94h.66v1.67h1.86V32.94h.66v3.93h-.66v-1.7H96.82Z"/><path class="cls-1" d="M101.2,35.72l-.51,1.14H100l1.78-3.93h.64l1.78,3.93h-.72l-.5-1.14Zm1.53-.55-.64-1.49-.65,1.49Z"/><path class="cls-1" d="M105.54,36.87h-.66V32.94h.68l2.24,3,0-3h.65v3.93h-.63l-2.29-3.06Z"/><path class="cls-1" d="M112.43,36.87V32.94h2.24v.52h-1.59v1.17h1.59v.51h-1.59v1.72Z"/><path class="cls-1" d="M116.59,35.72l-.51,1.14h-.7l1.78-3.93h.64l1.78,3.93h-.72l-.5-1.14Zm1.53-.55-.64-1.49-.65,1.49Z"/><path class="cls-1" d="M120.07,35.74h.59a.69.69,0,0,0,.21.49.71.71,0,0,0,.5.18.79.79,0,0,0,.54-.18.62.62,0,0,0,.21-.49.55.55,0,0,0-.15-.41,1.53,1.53,0,0,0-.63-.27l-.08,0a1.49,1.49,0,0,1-.83-.43,1,1,0,0,1-.17-.28.87.87,0,0,1-.06-.32,1,1,0,0,1,.35-.82,1.31,1.31,0,0,1,.91-.31,1.23,1.23,0,0,1,.84.28,1.07,1.07,0,0,1,.35.76H122a.53.53,0,0,0-.18-.38.69.69,0,0,0-.86,0,.54.54,0,0,0-.17.41.45.45,0,0,0,0,.17.45.45,0,0,0,.1.15,1.23,1.23,0,0,0,.58.24l.31.08a1.44,1.44,0,0,1,.68.42,1,1,0,0,1,.23.67,1.19,1.19,0,0,1-.37.92,1.4,1.4,0,0,1-1,.35,1.35,1.35,0,0,1-.95-.33A1.16,1.16,0,0,1,120.07,35.74Z"/><path class="cls-1" d="M125,36.87h-.66v-3.4h-.85v-.53h2.36v.53H125Z"/><path class="cls-1" d="M129.13,36.87h-2.36V32.94h2.36v.52h-1.7v1.17h1.7v.51h-1.7v1.18h1.7Z"/><path class="cls-1" d="M131.08,36.87h-.66V32.94h.68l2.24,3,0-3h.65v3.93h-.63L131,33.81Z"/><path class="cls-1" d="M135.88,36.87h-.66V32.94h.66Z"/><path class="cls-1" d="M137.82,36.87h-.66V32.94h.68l2.24,3,0-3h.65v3.93h-.63l-2.29-3.06Z"/><path class="cls-1" d="M143.4,34.88H146a2.14,2.14,0,0,1-.63,1.49,2,2,0,0,1-1.49.57,2.16,2.16,0,0,1-.86-.17,2.12,2.12,0,0,1-.71-.5,1.89,1.89,0,0,1-.4-.63,2.09,2.09,0,0,1-.14-.76,1.89,1.89,0,0,1,.16-.78,2.06,2.06,0,0,1,.48-.67,2,2,0,0,1,.67-.43,2.34,2.34,0,0,1,.83-.14,2.13,2.13,0,0,1,1.1.28,1.78,1.78,0,0,1,.72.79H145a1.32,1.32,0,0,0-.49-.38,1.56,1.56,0,0,0-.64-.13,1.5,1.5,0,0,0-.56.11,1.42,1.42,0,0,0-.47.31,1.5,1.5,0,0,0-.33.48,1.41,1.41,0,0,0-.12.56,1.56,1.56,0,0,0,.11.58,1.36,1.36,0,0,0,.31.47,1.53,1.53,0,0,0,.49.33,1.46,1.46,0,0,0,.57.12,1.48,1.48,0,0,0,.84-.24,1.77,1.77,0,0,0,.6-.71H143.4Z"/><path class="cls-4" d="M170.23,4.11h-.67v1.8h-.42V4.11h-.67V3.8h1.77Zm1.64,1.19.55-1.51H173V5.91h-.38V4.17L172,5.91h-.22l-.68-1.74V5.91h-.38V3.8h.59Z"/></g></svg>